#!OML:ASF H:\ManfredETheater\Project 1\Capture day 1\Session 1\subject.ASF
:FULLY-SPECIFIED
:DEGREES
154
root 1.56852 17.0933 33.8809 -173.417 -4.35895 178.652
lowerback 2.31767 -0.835725 -1.96986
upperback -2.54302 -1.19377 1.5275
thorax -3.84836 -0.53628 2.74922
lowerneck -18.9955 -0.830927 -2.29422
upperneck 23.6871 -1.31233 0.904487
head 10.7997 -0.930314 0.472567
rclavicle 9.6659e-015 -1.74931e-014
rhumerus -35.7745 -6.50949 -81.4961
rradius 29.5991
rwrist 2.85388
rhand -18.6821 -11.7648
rfingers 7.12502
rthumb 7.61198 -41.6078
lclavicle 9.6659e-015 -1.74931e-014
lhumerus -32.3515 4.08427 89.9171
lradius 27.8085
lwrist -16.347
lhand -10.2702 10.0999
lfingers 7.12502
lthumb 15.7235 39.4811
rfemur -14.4911 -0.997125 15.7367
rtibia 34.6919
rfoot -22.6463 -12.9747
rtoes 4.35159
lfemur -17.4201 -4.51868 -19.434
ltibia 36.895
lfoot -22.7062 2.64002
ltoes 1.16947
155
root 1.56435 17.0937 33.8696 -173.283 -4.371 178.625
lowerback 2.39676 -0.837061 -1.97804
upperback -2.4835 -1.19414 1.52862
thorax -3.83117 -0.53586 2.75567
lowerneck -19.012 -0.842308 -2.26358
upperneck 23.6519 -1.31987 0.855889
head 10.7895 -0.934963 0.449097
rclavicle 4.12478e-015 5.1684e-015
rhumerus -35.6769 -6.42365 -81.5622
rradius 29.6789
rwrist 2.77729
rhand -18.6808 -11.8076
rfingers 7.12502
rthumb 7.61322 -41.6506
lclavicle 4.12478e-015 5.1684e-015
lhumerus -32.3134 3.91057 90.0072
lradius 27.9774
lwrist -16.1698
lhand -10.2651 10.0936
lfingers 7.12502
lthumb 15.7283 39.4744
rfemur -14.5884 -1.00797 15.6968
rtibia 34.6868
rfoot -22.6733 -12.9824
rtoes 4.30901
lfemur -17.5256 -4.53689 -19.4681
ltibia 36.8913
lfoot -22.7275 2.65256
ltoes 1.19123
156
root 1.56009 17.0941 33.858 -173.144 -4.38127 178.596
lowerback 2.47818 -0.837988 -1.98941
upperback -2.42576 -1.19429 1.52967
thorax -3.81711 -0.535243 2.76391
lowerneck -19.0294 -0.853789 -2.24928
upperneck 23.6165 -1.32756 0.8265
head 10.7796 -0.938734 0.435282
rclavicle 6.70898e-016 -2.10712e-014
rhumerus -35.5852 -6.33495 -81.6272
rradius 29.7629
rwrist 2.70781
rhand -18.6879 -11.7999
rfingers 7.12502
rthumb 7.60644 -41.6432
lclavicle 6.70898e-016 -2.10712e-014
lhumerus -32.2807 3.72924 90.0983
lradius 28.1522
lwrist -15.9921
lhand -10.2717 10.0792
lfingers 7.12502
lthumb 15.722 39.4605
rfemur -14.6915 -1.01489 15.6539
rtibia 34.6828
rfoot -22.7022 -12.9916
rtoes 4.26778
lfemur -17.6344 -4.55454 -19.5046
ltibia 36.8853
lfoot -22.7491 2.66642
ltoes 1.20949
157
root 1.55584 17.0945 33.8461 -173.003 -4.39994 178.564
lowerback 2.56679 -0.842003 -2.00392
upperback -2.36762 -1.19884 1.53105
thorax -3.80638 -0.536697 2.77466
lowerneck -19.0516 -0.865142 -2.24883
upperneck 23.5808 -1.33431 0.81213
head 10.7708 -0.941307 0.429344
rclavicle 3.09359e-014 -1.98785e-015
rhumerus -35.4948 -6.24431 -81.6923
rradius 29.8543
rwrist 2.63907
rhand -18.6948 -11.7876
rfingers 7.12502
rthumb 7.59973 -41.631
lclavicle 3.09359e-014 -1.98785e-015
lhumerus -32.2492 3.5466 90.1881
lradius 28.3277
lwrist -15.8239
lhand -10.2886 10.0553
lfingers 7.12502
lthumb 15.7057 39.438
rfemur -14.7909 -1.02066 15.6098
rtibia 34.6783
rfoot -22.736 -13.0091
rtoes 4.22821
lfemur -17.7418 -4.57516 -19.5425
ltibia 36.8768
lfoot -22.7718 2.67586
ltoes 1.22742
158
root 1.55152 17.0949 33.8338 -172.86 -4.42513 178.531
lowerback 2.6669 -0.847977 -2.02024
upperback -2.31403 -1.20644 1.5329
thorax -3.80664 -0.539477 2.78743
lowerneck -19.0703 -0.875875 -2.26391
upperneck 23.5399 -1.34 0.81621
head 10.7595 -0.942354 0.43286
rclavicle -2.04748e-014 1.82882e-014
rhumerus -35.4144 -6.14308 -81.7602
rradius 29.9585
rwrist 2.55964
rhand -18.7033 -11.7947
rfingers 7.12502
rthumb 7.59156 -41.6385
lclavicle -2.04748e-014 1.82882e-014
lhumerus -32.2264 3.36107 90.2769
lradius 28.5072
lwrist -15.6605
lhand -10.315 10.0261
lfingers 7.12502
lthumb 15.6803 39.4107
rfemur -14.8885 -1.0263 15.5652
rtibia 34.6719
rfoot -22.7731 -13.0332
rtoes 4.19196
lfemur -17.8505 -4.59725 -19.5809
ltibia 36.867
lfoot -22.7969 2.6819
ltoes 1.24781
159
root 1.54704 17.0954 33.8211 -172.716 -4.45323 178.496
lowerback 2.75567 -0.855968 -2.03596
upperback -2.2533 -1.21655 1.53355
thorax -3.79295 -0.543814 2.79841
lowerneck -19.0842 -0.886518 -2.28551
upperneck 23.4878 -1.34445 0.826835
head 10.7433 -0.942249 0.440106
rclavicle 2.56432e-014 9.14409e-015
rhumerus -35.3275 -6.03529 -81.8339
rradius 30.0697
rwrist 2.47237
rhand -18.7113 -11.8077
rfingers 7.12502
rthumb 7.58382 -41.6518
lclavicle 2.56432e-014 9.14409e-015
lhumerus -32.1978 3.176 90.3616
lradius 28.6864
lwrist -15.506
lhand -10.3524 9.99158
lfingers 7.12502
lthumb 15.6443 39.379
rfemur -14.983 -1.0326 15.5187
rtibia 34.6621
rfoot -22.8121 -13.0611
rtoes 4.15111
lfemur -17.9586 -4.6223 -19.6213
ltibia 36.8569
lfoot -22.8247 2.68837
ltoes 1.27724
160
root 1.54233 17.0959 33.808 -172.565 -4.47423 178.464
lowerback 2.84878 -0.860619 -2.04736
upperback -2.19436 -1.22225 1.53425
thorax -3.78392 -0.546062 2.80691
lowerneck -19.1031 -0.898676 -2.30982
upperneck 23.4322 -1.34976 0.838896
head 10.7268 -0.942328 0.448213
rclavicle 1.31198e-014 1.70955e-014
rhumerus -35.2452 -5.92621 -81.9084
rradius 30.1905
rwrist 2.38182
rhand -18.7136 -11.818
rfingers 7.12502
rthumb 7.58164 -41.6621
lclavicle 1.31198e-014 1.70955e-014
lhumerus -32.17 2.99111 90.443
lradius 28.8648
lwrist -15.3584
lhand -10.3971 9.95276
lfingers 7.12502
lthumb 15.6012 39.3436
rfemur -15.0822 -1.03614 15.4747
rtibia 34.6487
rfoot -22.8498 -13.0862
rtoes 4.10606
lfemur -18.0717 -4.64429 -19.659
ltibia 36.848
lfoot -22.8561 2.69871
ltoes 1.32611
161
root 1.5373 17.0964 33.7945 -172.409 -4.49515 178.438
lowerback 2.94522 -0.865849 -2.05352
upperback -2.14331 -1.22885 1.53698
thorax -3.78496 -0.548793 2.81483
lowerneck -19.1018 -0.909747 -2.33441
upperneck 23.3663 -1.35276 0.84592
head 10.7026 -0.94213 0.454983
rclavicle 1.51573e-014 -3.97569e-016
rhumerus -35.1737 -5.80954 -81.9822
rradius 30.3123
rwrist 2.29139
rhand -18.7118 -11.8327
rfingers 7.12502
rthumb 7.58334 -41.6767
lclavicle 1.51573e-014 -3.97569e-016
lhumerus -32.1558 2.81492 90.5196
lradius 29.0419
lwrist -15.2186
lhand -10.4465 9.91396
lfingers 7.12502
lthumb 15.5537 39.3085
rfemur -15.1842 -1.04189 15.4342
rtibia 34.6311
rfoot -22.8882 -13.1094
rtoes 4.05726
lfemur -18.1913 -4.66486 -19.6928
ltibia 36.8418
lfoot -22.891 2.71143
ltoes 1.37884
162
root 1.53185 17.0969 33.7805 -172.247 -4.5156 178.415
lowerback 3.02673 -0.869948 -2.04965
upperback -2.08431 -1.23331 1.53708
thorax -3.76966 -0.551084 2.81382
lowerneck -19.105 -0.923214 -2.3551
upperneck 23.2865 -1.35756 0.849532
head 10.6742 -0.942118 0.459713
rclavicle 8.74653e-015 1.51076e-014
rhumerus -35.0857 -5.70012 -82.0595
rradius 30.4307
rwrist 2.2026
rhand -18.7074 -11.8497
rfingers 7.12502
rthumb 7.58756 -41.6936
lclavicle 8.74653e-015 1.51076e-014
lhumerus -32.1272 2.64016 90.5895
lradius 29.2125
lwrist -15.0953
lhand -10.5085 9.86357
lfingers 7.12502
lthumb 15.4939 39.2627
rfemur -15.2901 -1.04901 15.3958
rtibia 34.6098
rfoot -22.9263 -13.1298
rtoes 4.00855
lfemur -18.3185 -4.68699 -19.7241
ltibia 36.8401
lfoot -22.932 2.72789
ltoes 1.44604
163
root 1.52605 17.0973 33.766 -172.08 -4.54521 178.397
lowerback 3.1132 -0.876383 -2.0378
upperback -2.03124 -1.24078 1.53988
thorax -3.76323 -0.554979 2.81152
lowerneck -19.0984 -0.936309 -2.37454
upperneck 23.1992 -1.36067 0.846924
head 10.6412 -0.941962 0.462306
rclavicle 1.98785e-014 9.14409e-015
rhumerus -35.0087 -5.58289 -82.1355
rradius 30.5554
rwrist 2.10981
rhand -18.7023 -11.8544
rfingers 7.12502
rthumb 7.5925 -41.6981
lclavicle 1.98785e-014 9.14409e-015
lhumerus -32.1061 2.47582 90.6559
lradius 29.3773
lwrist -14.9859
lhand -10.5777 9.80819
lfingers 7.12502
lthumb 15.4272 39.2125
rfemur -15.3954 -1.05964 15.3641
rtibia 34.5856
rfoot -22.9676 -13.1533
rtoes 3.95388
lfemur -18.4522 -4.71428 -19.7483
ltibia 36.8435
lfoot -22.9784 2.74305
ltoes 1.52345
164
root 1.51975 17.0975 33.7509 -171.905 -4.57399 178.388
lowerback 3.20634 -0.879857 -2.01505
upperback -1.98517 -1.24411 1.54392
thorax -3.76829 -0.556942 2.80439
lowerneck -19.0943 -0.951439 -2.38743
upperneck 23.1121 -1.36561 0.833228
head 10.6086 -0.943397 0.459548
rclavicle 2.03754e-015 1.47101e-014
rhumerus -34.9388 -5.46623 -82.2075
rradius 30.6804
rwrist 2.01623
rhand -18.6966 -11.863
rfingers 7.12502
rthumb 7.59798 -41.7065
lclavicle 2.03754e-015 1.47101e-014
lhumerus -32.0899 2.31357 90.7199
lradius 29.536
lwrist -14.8863
lhand -10.6505 9.74587
lfingers 7.12502
lthumb 15.3571 39.1556
rfemur -15.5077 -1.07303 15.3387
rtibia 34.5603
rfoot -23.0097 -13.1705
rtoes 3.8998
lfemur -18.5963 -4.7409 -19.7654
ltibia 36.8529
lfoot -23.0291 2.76063
ltoes 1.60003
165
root 1.51294 17.0976 33.7353 -171.722 -4.60906 178.381
lowerback 3.28961 -0.884197 -1.98266
upperback -1.93895 -1.24811 1.54712
thorax -3.76777 -0.559645 2.7908
lowerneck -19.0857 -0.966769 -2.39743
upperneck 23.0158 -1.37025 0.81585
head 10.5718 -0.944639 0.455116
rclavicle -5.66536e-015 1.47101e-014
rhumerus -34.8707 -5.34742 -82.2804
rradius 30.8114
rwrist 1.91944
rhand -18.6958 -11.8805
rfingers 7.12502
rthumb 7.59876 -41.724
lclavicle -5.66536e-015 1.47101e-014
lhumerus -32.068 2.15766 90.7792
lradius 29.6875
lwrist -14.795
lhand -10.7176 9.68409
lfingers 7.12502
lthumb 15.2926 39.0987
rfemur -15.6261 -1.0928 15.3158
rtibia 34.5353
rfoot -23.0536 -13.1866
rtoes 3.84093
lfemur -18.7514 -4.76876 -19.7791
ltibia 36.8689
lfoot -23.085 2.77426
ltoes 1.68535
166
root 1.50554 17.0975 33.7191 -171.531 -4.64176 178.379
lowerback 3.37657 -0.886945 -1.94492
upperback -1.90255 -1.24998 1.55271
thorax -3.7797 -0.56123 2.7768
lowerneck -19.0696 -0.980957 -2.40842
upperneck 22.9206 -1.37277 0.794478
head 10.5339 -0.945756 0.449735
rclavicle 4.22417e-015 -2.78299e-015
rhumerus -34.822 -5.21037 -82.3527
rradius 30.957
rwrist 1.81005
rhand -18.6983 -11.8796
rfingers 7.12502
rthumb 7.59638 -41.7232
lclavicle 4.22417e-015 -2.78299e-015
lhumerus -32.0573 2.01071 90.8377
lradius 29.8346
lwrist -14.7107
lhand -10.7838 9.62268
lfingers 7.12502
lthumb 15.2288 39.0422
rfemur -15.7542 -1.11651 15.2943
rtibia 34.5127
rfoot -23.0992 -13.1956
rtoes 3.77941
lfemur -18.9183 -4.79464 -19.7901
ltibia 36.8928
lfoot -23.1452 2.79075
ltoes 1.75807
